<svg id="Warstwa_1" data-name="Warstwa 1" xmlns="http://www.w3.org/2000/svg" viewBox="0 0 202 189">
  <defs>
    <style>
      .cls-1 {
        fill: #fff;
      }
    </style>
  </defs>
  <path class="cls-1" d="M164.756,80.872a11.137,11.137,0,0,0-.335-2.7l.086.067,6.006-11.061-11.9,3.273a17.884,17.884,0,0,0-9.717-2.784,18.773,18.773,0,0,0-4.839.631l-6.909-6.117-.943,10.8a11.772,11.772,0,0,0-3.171,7.9,11.951,11.951,0,0,0,3.825,8.588c-.461.415-.936.874-1.424,1.389a44.769,44.769,0,0,0-3.529,4.322c-4.248-8.243-9.034-15.587-13.125-20.28A15.944,15.944,0,0,0,125.9,61.922a15.393,15.393,0,0,0-4.522-10.747L121.445,38l-9.771,7.807a22.038,22.038,0,0,0-5.045-.6A21.641,21.641,0,0,0,98.47,46.8L89.059,39.17,89,55.188a14.777,14.777,0,0,0-1.642,6.734,15.544,15.544,0,0,0,5.262,11.454l-.224.219a36.32,36.32,0,0,0-6.489,9.061,21.979,21.979,0,0,0-8.519-6.477,33.723,33.723,0,0,0-13.811-2.64A34.5,34.5,0,0,0,46.358,77.6,28.239,28.239,0,0,0,35.367,88.365l14.3,8.326a13.541,13.541,0,0,1,5.253-5.179,14.358,14.358,0,0,1,6.905-1.726q4.377,0,6.566,1.929A6.8,6.8,0,0,1,70.578,97.1a12.3,12.3,0,0,1-.438,3.1,13.1,13.1,0,0,1-1.751,3.706,28.236,28.236,0,0,1-4.036,4.671L38.868,133.449V146.04H91.879v-.308a73.866,73.866,0,0,0,9.3.271c11.142,0,19.662-.012,25.784-.227,4.73.216,11.647.226,20.984.227,6.517,0,7.405-.055,8.731-.758,11.818-6.259,11.01-38.7-.475-52.659C161.283,90.384,164.756,85.969,164.756,80.872Zm-86.3,36.838c.045-.043.085-.084.13-.126A59.3,59.3,0,0,0,80.214,130.1H65.6Z"/>
</svg>
